<svg width="80" height="80" viewBox="0 0 80 80" fill="none" xmlns="http://www.w3.org/2000/svg">
<circle cx="40" cy="40" r="40" fill="#EB920E"/>
<path d="M38.0137 43H21.1738V40.5566L28.0469 33.5781C29.3242 32.2891 30.3965 31.1406 31.2637 30.1328C32.1426 29.125 32.8105 28.1348 33.2676 27.1621C33.7246 26.1777 33.9531 25.0996 33.9531 23.9277C33.9531 22.4746 33.5195 21.3672 32.6523 20.6055C31.7969 19.832 30.666 19.4453 29.2598 19.4453C28.0293 19.4453 26.9395 19.6562 25.9902 20.0781C25.041 20.5 24.0684 21.0977 23.0723 21.8711L21.5078 19.9023C22.1875 19.3281 22.9258 18.8184 23.7227 18.373C24.5312 17.9277 25.3926 17.5762 26.3066 17.3184C27.2324 17.0605 28.2168 16.9316 29.2598 16.9316C30.8418 16.9316 32.207 17.207 33.3555 17.7578C34.5039 18.3086 35.3887 19.0938 36.0098 20.1133C36.6426 21.1328 36.959 22.3457 36.959 23.752C36.959 25.1113 36.6895 26.377 36.1504 27.5488C35.6113 28.709 34.8555 29.8633 33.8828 31.0117C32.9102 32.1484 31.7734 33.3555 30.4727 34.6328L24.8828 40.2051V40.3281H38.0137V43Z" fill="white"/>
<path d="M49.8965 27.2852C51.6426 27.2852 53.1602 27.584 54.4492 28.1816C55.7383 28.7676 56.7344 29.623 57.4375 30.748C58.1523 31.873 58.5098 33.2383 58.5098 34.8438C58.5098 36.6016 58.1289 38.1191 57.3672 39.3965C56.6055 40.6621 55.5098 41.6406 54.0801 42.332C52.6504 43.0117 50.9395 43.3516 48.9473 43.3516C47.6113 43.3516 46.3691 43.2344 45.2207 43C44.0723 42.7656 43.1055 42.4141 42.3203 41.9453V39.168C43.1758 39.6836 44.2129 40.0938 45.4316 40.3984C46.6504 40.7031 47.834 40.8555 48.9824 40.8555C50.2832 40.8555 51.4199 40.6504 52.3926 40.2402C53.377 39.8184 54.1387 39.1855 54.6777 38.3418C55.2285 37.4863 55.5039 36.4141 55.5039 35.125C55.5039 33.4141 54.9766 32.0957 53.9219 31.1699C52.8789 30.2324 51.2266 29.7637 48.9648 29.7637C48.2383 29.7637 47.4414 29.8223 46.5742 29.9395C45.707 30.0566 44.9922 30.1855 44.4297 30.3262L42.9531 29.3594L43.9375 17.3008H56.7168V19.9727H46.4336L45.7832 27.7246C46.2285 27.6309 46.8027 27.5371 47.5059 27.4434C48.209 27.3379 49.0059 27.2852 49.8965 27.2852Z" fill="white"/>
<path d="M32.2656 67H29.4883V56.1836H25.8906C25.7344 58.1523 25.5391 59.8359 25.3047 61.2344C25.0703 62.6328 24.7773 63.7734 24.4258 64.6562C24.0742 65.5312 23.6406 66.1719 23.125 66.5781C22.6094 66.9844 21.9883 67.1875 21.2617 67.1875C20.9414 67.1875 20.6523 67.1641 20.3945 67.1172C20.1367 67.0781 19.9062 67.0156 19.7031 66.9297V64.7617C19.8359 64.8086 19.9805 64.8477 20.1367 64.8789C20.293 64.9102 20.4531 64.9258 20.6172 64.9258C20.9062 64.9258 21.1719 64.8086 21.4141 64.5742C21.6641 64.332 21.8945 63.9531 22.1055 63.4375C22.3164 62.9219 22.5078 62.2422 22.6797 61.3984C22.8516 60.5469 23.0078 59.5156 23.1484 58.3047C23.2891 57.0859 23.4141 55.6602 23.5234 54.0273H32.2656V67Z" fill="white"/>
<path d="M41.3828 53.7812C42.5391 53.7812 43.5312 54.0195 44.3594 54.4961C45.1875 54.9727 45.8242 55.6484 46.2695 56.5234C46.7148 57.3984 46.9375 58.4453 46.9375 59.6641V61.1406H38.2773C38.3086 62.3984 38.6445 63.3672 39.2852 64.0469C39.9336 64.7266 40.8398 65.0664 42.0039 65.0664C42.832 65.0664 43.5742 64.9883 44.2305 64.832C44.8945 64.668 45.5781 64.4297 46.2812 64.1172V66.3555C45.6328 66.6602 44.9727 66.8828 44.3008 67.0234C43.6289 67.1641 42.8242 67.2344 41.8867 67.2344C40.6133 67.2344 39.4922 66.9883 38.5234 66.4961C37.5625 65.9961 36.8086 65.2539 36.2617 64.2695C35.7227 63.2852 35.4531 62.0625 35.4531 60.6016C35.4531 59.1484 35.6992 57.9141 36.1914 56.8984C36.6836 55.8828 37.375 55.1094 38.2656 54.5781C39.1562 54.0469 40.1953 53.7812 41.3828 53.7812ZM41.3828 55.8555C40.5156 55.8555 39.8125 56.1367 39.2734 56.6992C38.7422 57.2617 38.4297 58.0859 38.3359 59.1719H44.2422C44.2344 58.5234 44.125 57.9492 43.9141 57.4492C43.7109 56.9492 43.3984 56.5586 42.9766 56.2773C42.5625 55.9961 42.0312 55.8555 41.3828 55.8555Z" fill="white"/>
<path d="M59.8398 56.1953H55.5742V67H52.832V56.1953H48.5898V54.0273H59.8398V56.1953Z" fill="white"/>
</svg>
