<svg width="276" height="119" viewBox="0 0 276 119" fill="none" xmlns="http://www.w3.org/2000/svg">
<path fill-rule="evenodd" clip-rule="evenodd" d="M271.214 9.83959C270.398 9.84549 269.599 9.60817 268.917 9.15769C268.236 8.70721 267.703 8.06387 267.386 7.3092C267.07 6.55453 266.983 5.72253 267.139 4.91865C267.294 4.11476 267.683 3.3752 268.258 2.7937C268.832 2.2122 269.566 1.81495 270.366 1.6523C271.166 1.48965 271.996 1.56892 272.751 1.88007C273.505 2.19121 274.151 2.72023 274.606 3.40006C275.061 4.07988 275.304 4.87991 275.306 5.69872C275.31 6.2406 275.207 6.7779 275.003 7.27973C274.799 7.78156 274.498 8.23802 274.118 8.62285C273.738 9.00768 273.286 9.31329 272.787 9.52211C272.289 9.73092 271.754 9.83881 271.214 9.83959ZM271.161 0.88959C270.194 0.856299 269.24 1.11346 268.42 1.62808C267.601 2.14269 266.953 2.8913 266.56 3.77787C266.167 4.66443 266.047 5.64852 266.216 6.60388C266.384 7.55925 266.833 8.44232 267.506 9.13982C268.178 9.83731 269.042 10.3174 269.988 10.5186C270.934 10.7197 271.918 10.6327 272.815 10.2687C273.711 9.90465 274.479 9.28025 275.019 8.47557C275.559 7.67089 275.847 6.72263 275.847 5.75242C275.862 5.12208 275.752 4.49501 275.524 3.90742C275.296 3.31983 274.955 2.78337 274.519 2.32901C274.083 1.87465 273.562 1.51141 272.986 1.26025C272.409 1.00909 271.789 0.875001 271.161 0.865723V0.88959Z" fill="white"/>
<path fill-rule="evenodd" clip-rule="evenodd" d="M271.618 5.6272C271.879 5.64617 272.138 5.58362 272.362 5.4482C272.464 5.36687 272.543 5.26037 272.592 5.13908C272.641 5.01779 272.658 4.88583 272.641 4.75607C272.662 4.60691 272.635 4.45508 272.566 4.32151C272.497 4.18794 272.388 4.07919 272.255 4.01024C272.084 3.93665 271.899 3.90201 271.714 3.9088H270.084V5.60334L271.618 5.6272ZM269.394 3.34794H271.696C272.019 3.33522 272.342 3.39218 272.641 3.515C272.869 3.61497 273.059 3.78377 273.186 3.99776C273.313 4.21175 273.37 4.46021 273.349 4.70834C273.359 4.96453 273.293 5.21788 273.159 5.43627C273.024 5.63424 272.839 5.79278 272.623 5.8957C272.799 5.95693 272.953 6.06654 273.069 6.21194C273.191 6.38677 273.253 6.59575 273.248 6.8086V7.47687C273.236 7.61981 273.236 7.76353 273.248 7.90647C273.26 7.9719 273.287 8.03356 273.328 8.08642C273.368 8.13929 273.42 8.18189 273.48 8.21077V8.31817H272.629C272.608 8.26821 272.592 8.21623 272.582 8.16304C272.555 8.02943 272.541 7.89357 272.54 7.7573L272.499 6.92794C272.507 6.79599 272.477 6.66441 272.413 6.54903C272.349 6.43365 272.252 6.33938 272.136 6.27757C271.947 6.2022 271.744 6.1696 271.541 6.1821H270.031V8.31817H269.341L269.394 3.34794Z" fill="white"/>
<path fill-rule="evenodd" clip-rule="evenodd" d="M0.153809 89.8467V2.22019H42.1976V11.4208H11.2743V40.747H38.0824V49.9535H11.2981V89.8586L0.153809 89.8467ZM81.9815 89.8467H93.0188L71.8244 2.22019H61.3819L40.5027 89.8467H51.2069L55.5838 70.3357H77.4501L81.9637 89.8467H81.9815ZM66.1809 20.2276H66.7459L70.6945 40.3711L75.4936 61.141H57.4332L62.0955 40.6217L66.1869 20.2276H66.1809ZM137.477 89.8467L123.555 51.4511H113.024V89.8467H101.879V2.22019H123.395C131.364 2.22019 137.225 4.27669 140.98 8.38972C144.734 12.5027 146.607 18.7558 146.599 27.1489C146.689 31.7251 145.824 36.2696 144.06 40.4904C142.395 44.3508 139.005 47.3342 133.95 49.4404L148.859 89.8526L137.477 89.8467ZM135.455 27.1549C135.476 24.9955 135.287 22.8393 134.89 20.7169C134.567 18.9077 133.819 17.2019 132.708 15.7407C131.571 14.3177 130.088 13.2122 128.402 12.5306C126.192 11.7057 123.843 11.3226 121.486 11.4029H113.024V42.2446H122.473C124.64 42.3111 126.799 41.9461 128.824 41.1706C130.422 40.533 131.813 39.4656 132.844 38.0858C133.867 36.6648 134.566 35.035 134.89 33.3125C135.286 31.2805 135.475 29.2133 135.455 27.143V27.1549ZM182.012 90.7297C174.587 90.7297 169.036 88.882 165.361 85.1867C161.686 81.4913 159.853 76.2884 159.861 69.5779V26.2718C159.867 23.2022 160.185 20.1413 160.812 17.1369C161.365 14.2925 162.492 11.5919 164.124 9.20118C165.865 6.78072 168.198 4.85112 170.898 3.59849C173.812 2.17046 177.526 1.45844 182.042 1.46242C189.666 1.46242 195.145 3.2027 198.479 6.68325C201.813 10.1638 203.577 14.8854 203.772 20.8481L192.627 23.2348C192.722 19.3763 191.945 16.3135 190.296 14.0461C188.647 11.7788 185.85 10.6451 181.905 10.6451C179.975 10.5584 178.061 11.0395 176.399 12.0294C175.036 12.9029 173.901 14.0891 173.086 15.4901C172.274 16.9109 171.724 18.4673 171.463 20.0844C171.192 21.6612 171.05 23.2577 171.041 24.8577V69.0469C171.053 70.4195 171.195 71.7879 171.463 73.134C171.732 74.5714 172.284 75.9406 173.086 77.1615C173.925 78.4201 175.035 79.4741 176.333 80.2463C177.993 81.1603 179.872 81.596 181.763 81.5053H181.905C185.473 81.5053 188.294 80.666 190.368 78.9873C192.441 77.3087 193.476 75.0016 193.472 72.066V51.1827H182.012V42.5131H204.61V70.8369C204.668 73.8087 204.058 76.7556 202.826 79.4587C201.702 81.8652 200.063 83.9939 198.027 85.6939C195.905 87.424 193.458 88.7084 190.831 89.4708C187.969 90.321 184.998 90.7452 182.012 90.7297ZM263.002 66.3022C263.002 74.1145 261.285 80.1369 257.852 84.3693C254.418 88.6016 248.563 90.7218 240.285 90.7297C232.197 90.7297 226.437 88.7567 223.003 84.8108C219.57 80.8648 217.854 75.6619 217.854 69.202V26.0212C217.847 22.9765 218.153 19.9392 218.769 16.9579C219.335 14.1255 220.488 11.4442 222.153 9.08782C223.921 6.68148 226.279 4.77418 228.998 3.55075C231.912 2.16649 235.722 1.47435 240.428 1.47435C245.316 1.47435 249.243 2.08295 252.208 3.30015C254.916 4.32775 257.284 6.09232 259.047 8.39569C260.686 10.673 261.773 13.3023 262.223 16.0748C262.763 19.2779 263.023 22.5221 263.002 25.7706V66.3022ZM251.851 24.2193C251.85 22.6594 251.733 21.1017 251.5 19.5593C251.283 18.0377 250.778 16.5715 250.014 15.2395C249.175 13.8629 247.981 12.7393 246.559 11.9876C245.005 11.1046 242.959 10.663 240.422 10.663C237.599 10.663 235.434 11.2716 233.928 12.4888C232.466 13.6309 231.305 15.1138 230.544 16.8087C229.788 18.4918 229.333 20.2954 229.2 22.1369C229.063 24.0284 228.992 25.5797 228.992 26.8387V69.2438C229.001 70.589 229.143 71.93 229.414 73.2474C229.703 74.6927 230.279 76.0646 231.109 77.2809C232.002 78.5618 233.187 79.611 234.564 80.3418C236.379 81.1398 238.34 81.5464 240.322 81.5351C242.303 81.5238 244.26 81.0948 246.065 80.2761C247.485 79.5222 248.696 78.4276 249.592 77.0899C250.466 75.7354 251.072 74.2239 251.376 72.6388C251.709 70.9389 251.874 69.2101 251.869 67.4776L251.851 24.2193Z" fill="white"/>
<path fill-rule="evenodd" clip-rule="evenodd" d="M0.153809 113.731V102.46H1.93784V107.365H2.71687C2.91595 107.362 3.11464 107.346 3.31155 107.317C3.52197 107.286 3.72408 107.213 3.90623 107.102C4.11476 106.97 4.29475 106.798 4.43549 106.595C4.61413 106.327 4.74119 106.027 4.81014 105.712L5.72594 102.46H7.4624L6.57039 105.736C6.44501 106.227 6.2444 106.696 5.97571 107.126C5.74302 107.466 5.40064 107.714 5.00638 107.83C5.23462 107.877 5.45077 107.97 5.64117 108.105C5.83156 108.239 5.99205 108.412 6.11249 108.612C6.37745 109.063 6.57765 109.549 6.70716 110.056L7.68838 113.719H5.90435L5.12532 110.605C5.05565 110.29 4.94151 109.986 4.78635 109.704C4.66929 109.488 4.5045 109.302 4.30466 109.161C4.12289 109.042 3.9215 108.957 3.70999 108.91C3.48126 108.861 3.24802 108.837 3.01421 108.839H1.95569V113.719L0.153809 113.731ZM16.3172 113.731V102.395H19.3322C20.3085 102.313 21.2794 102.605 22.0499 103.212C22.4733 103.693 22.7535 104.283 22.8587 104.916C22.9638 105.549 22.8896 106.199 22.6445 106.792C22.4467 107.158 22.1604 107.467 21.812 107.693C22.0284 107.788 22.224 107.924 22.3873 108.095C22.5506 108.267 22.6785 108.468 22.7635 108.689C22.9452 109.192 23.0339 109.724 23.0251 110.259C23.0669 110.737 23.0045 111.218 22.8423 111.669C22.68 112.12 22.4218 112.531 22.0855 112.872C21.2586 113.485 20.2384 113.778 19.2132 113.695L16.3172 113.731ZM21.3184 110.151C21.3447 109.719 21.2065 109.292 20.9319 108.958C20.7166 108.789 20.4703 108.665 20.2069 108.592C19.9436 108.519 19.6685 108.5 19.3976 108.534H18.1666V112.007H19.4452C19.7778 112.02 20.1102 111.974 20.4264 111.87C20.6546 111.8 20.86 111.67 21.0211 111.494C21.164 111.324 21.2549 111.117 21.2827 110.897C21.3251 110.647 21.345 110.393 21.3422 110.139L21.3184 110.151ZM21.1162 105.479C21.1319 105.276 21.1016 105.071 21.0274 104.881C20.9533 104.691 20.8373 104.52 20.688 104.381C20.2636 104.094 19.7528 103.963 19.243 104.012H18.1666V106.995H19.2192C19.7371 107.042 20.2551 106.905 20.6821 106.607C20.8318 106.458 20.948 106.279 21.0229 106.081C21.0978 105.884 21.1296 105.672 21.1162 105.461V105.479ZM36.7325 112.741C36.4676 113.118 36.1087 113.418 35.6918 113.612C35.2758 113.787 34.8285 113.874 34.3775 113.868C33.9626 113.882 33.5516 113.783 33.1882 113.582C32.8762 113.396 32.6148 113.136 32.427 112.824C32.2331 112.497 32.0926 112.14 32.0107 111.768C31.9272 111.376 31.8854 110.976 31.8858 110.575C31.8872 110.142 31.933 109.71 32.0226 109.286C32.1124 108.872 32.2755 108.478 32.5043 108.123C32.7408 107.762 33.0639 107.466 33.4439 107.263C33.9157 107.021 34.4425 106.905 34.9722 106.929H36.7562V105.444C36.7768 105.069 36.6699 104.699 36.453 104.393C36.2969 104.242 36.1089 104.129 35.903 104.06C35.6971 103.992 35.4786 103.971 35.2636 104C34.9466 104.006 34.6376 104.101 34.3716 104.274C34.2221 104.376 34.096 104.508 34.0016 104.662C33.9073 104.817 33.8469 104.989 33.8245 105.169L32.1118 104.692C32.243 103.98 32.6329 103.342 33.206 102.902C33.8302 102.453 34.5857 102.226 35.3528 102.257C36.2041 102.199 37.048 102.449 37.7315 102.961C38.2846 103.427 38.5641 104.238 38.5641 105.402V113.755H36.78V112.771L36.7325 112.741ZM36.7325 108.504H35.4123C34.9598 108.497 34.5188 108.647 34.1635 108.928C33.9648 109.124 33.8133 109.363 33.7205 109.627C33.6278 109.89 33.5962 110.172 33.6282 110.45C33.5982 110.887 33.7201 111.321 33.9732 111.679C34.107 111.827 34.2733 111.943 34.459 112.016C34.6446 112.09 34.8447 112.119 35.0436 112.102C35.2772 112.121 35.5119 112.087 35.7309 112.003C35.9499 111.919 36.1477 111.788 36.3102 111.619C36.6118 111.244 36.7624 110.769 36.7325 110.288V108.498V108.504ZM51.5162 102.245C51.76 102.252 52.0028 102.279 52.2417 102.329C52.543 102.386 52.8277 102.51 53.0742 102.693C53.3696 102.918 53.6148 103.202 53.7938 103.528C54.0333 103.992 54.1788 104.499 54.2219 105.02C54.2695 105.479 54.2992 105.963 54.3052 106.464C54.3111 106.965 54.3052 107.442 54.3052 107.884C54.3052 108.707 54.3052 109.483 54.2457 110.211C54.2234 110.855 54.1072 111.492 53.9008 112.102C53.7398 112.601 53.4383 113.043 53.0326 113.373C52.5475 113.712 51.9634 113.878 51.3734 113.845C50.979 113.854 50.588 113.77 50.2317 113.6C49.9123 113.44 49.6397 113.199 49.4407 112.902H49.3932V118.129H47.6091V102.389H49.3932V103.26H49.4407C49.6469 102.957 49.9095 102.698 50.2138 102.496C50.6108 102.288 51.0576 102.195 51.5043 102.227L51.5162 102.245ZM50.9215 104.035C50.7045 104.021 50.4874 104.06 50.2886 104.149C50.0898 104.237 49.9152 104.372 49.7797 104.543C49.5114 104.915 49.3753 105.366 49.3932 105.825V110.312C49.3706 110.771 49.5003 111.224 49.7619 111.601C49.9035 111.767 50.0826 111.897 50.2842 111.98C50.4859 112.063 50.7043 112.097 50.9215 112.078C51.2062 112.092 51.4887 112.023 51.7362 111.882C51.9669 111.718 52.1347 111.48 52.2119 111.207C52.3467 110.796 52.4286 110.369 52.4557 109.936C52.4974 109.411 52.5212 108.743 52.5212 107.979C52.5212 107.216 52.5212 106.673 52.5212 106.189C52.5085 105.785 52.4425 105.383 52.3249 104.996C52.2471 104.716 52.0774 104.47 51.8432 104.298C51.5751 104.135 51.264 104.058 50.9512 104.077L50.9215 104.035ZM70.195 102.43V112.007H70.974V116.571H69.303V113.725H63.5703V102.389H65.4197V112.007H68.3931V102.412L70.195 102.43ZM82.7605 112.24C82.9516 112.252 83.1427 112.217 83.3177 112.139C83.4927 112.061 83.6463 111.942 83.7656 111.792C84.0077 111.421 84.1397 110.988 84.1461 110.545L85.9718 110.885C85.9688 111.722 85.6477 112.527 85.0738 113.135C84.3887 113.703 83.5099 113.981 82.6238 113.91C82.1997 113.919 81.7773 113.854 81.3749 113.719C81.0503 113.604 80.7483 113.432 80.4829 113.212C80.2415 113.02 80.0396 112.783 79.8883 112.514C79.7522 112.27 79.6483 112.009 79.579 111.738C79.5284 111.51 79.4906 111.279 79.466 111.046C79.4363 110.772 79.4125 110.45 79.4006 110.145C79.3887 109.841 79.4006 109.483 79.3649 109.149C79.3292 108.815 79.3649 108.498 79.3649 108.206C79.3649 107.914 79.3649 107.436 79.3649 107.049C79.3649 106.661 79.3649 106.291 79.4185 105.939C79.472 105.587 79.4898 105.265 79.5374 104.966C79.571 104.712 79.6308 104.462 79.7158 104.22C79.9118 103.648 80.2821 103.151 80.7743 102.8C81.3749 102.417 82.0796 102.231 82.7903 102.269C83.2414 102.23 83.6956 102.294 84.1181 102.457C84.5407 102.621 84.9204 102.879 85.2285 103.212C85.7647 103.964 86.029 104.878 85.9778 105.802V108.594H81.1311C81.1311 109.101 81.1311 109.596 81.1668 110.086C81.1739 110.464 81.2237 110.84 81.3155 111.207C81.3933 111.521 81.5794 111.797 81.8407 111.986C82.102 112.175 82.4216 112.265 82.7427 112.24H82.7605ZM84.1878 107.132V106.165C84.1883 105.886 84.1704 105.607 84.1343 105.33C84.1015 105.086 84.0271 104.85 83.9142 104.632C83.8119 104.437 83.6575 104.273 83.4682 104.161C83.2379 104.038 82.9795 103.978 82.7189 103.988C82.4523 103.985 82.1897 104.053 81.9577 104.185C81.6952 104.353 81.4996 104.609 81.4047 104.907C81.3146 105.189 81.2606 105.482 81.2441 105.778C81.2144 106.142 81.1906 106.595 81.1728 107.132H84.1878ZM95.2131 113.749V102.412H98.2281C99.2045 102.329 100.176 102.622 100.946 103.23C101.245 103.525 101.477 103.882 101.627 104.275C101.776 104.668 101.84 105.089 101.814 105.509C101.832 105.963 101.742 106.415 101.552 106.828C101.356 107.195 101.07 107.505 100.72 107.729C100.935 107.824 101.13 107.961 101.292 108.132C101.454 108.303 101.581 108.505 101.665 108.725C101.85 109.227 101.939 109.759 101.927 110.294C101.97 110.772 101.909 111.253 101.747 111.704C101.586 112.156 101.329 112.566 100.993 112.908C100.164 113.521 99.1421 113.814 98.1151 113.731L95.2131 113.749ZM100.214 110.169C100.243 109.736 100.105 109.309 99.8278 108.976C99.6138 108.807 99.3685 108.683 99.1061 108.61C98.8437 108.537 98.5695 108.517 98.2995 108.552H97.0626V112.007H98.3708C98.7054 112.021 99.0398 111.974 99.358 111.87C99.5862 111.8 99.7916 111.67 99.9527 111.494C100.093 111.323 100.184 111.116 100.214 110.897C100.252 110.646 100.27 110.393 100.268 110.139L100.214 110.169ZM100.012 105.497C100.027 105.294 99.9973 105.09 99.9243 104.901C99.8513 104.711 99.7371 104.539 99.5899 104.399C99.1628 104.113 98.6506 103.982 98.1389 104.029H97.0626V107.013H98.1151C98.6257 107.059 99.1365 106.926 99.5602 106.637C99.7112 106.489 99.8283 106.31 99.9033 106.112C99.9782 105.914 100.009 105.702 99.9943 105.491L100.012 105.497ZM113.053 112.007H114.035C114.385 112.021 114.735 111.964 115.063 111.84C115.293 111.743 115.496 111.593 115.658 111.404C115.793 111.229 115.887 111.025 115.932 110.808C115.977 110.596 115.999 110.38 115.997 110.163C115.999 109.937 115.977 109.711 115.932 109.489C115.892 109.268 115.793 109.062 115.646 108.892C115.481 108.717 115.278 108.584 115.052 108.504C114.716 108.393 114.364 108.343 114.011 108.355H113.077V112.007H113.053ZM118.762 113.725V102.389H120.636V113.725H118.762ZM111.18 113.725V102.389H113.053V106.697H114.035C114.687 106.674 115.338 106.771 115.955 106.983C116.39 107.139 116.782 107.396 117.097 107.735C117.367 108.047 117.559 108.419 117.656 108.821C117.755 109.247 117.805 109.684 117.805 110.121C117.811 110.621 117.757 111.12 117.644 111.607C117.554 112.039 117.35 112.439 117.053 112.764C116.756 113.09 116.377 113.329 115.955 113.457C115.378 113.637 114.776 113.722 114.171 113.707L111.18 113.725ZM131.994 97.9136C132.01 98.0816 132.057 98.2453 132.131 98.3969C132.209 98.569 132.313 98.728 132.44 98.8682C132.57 99.0145 132.728 99.1341 132.904 99.2203C133.089 99.3116 133.292 99.3585 133.498 99.3575C133.724 99.3637 133.948 99.3167 134.153 99.2203C134.337 99.1386 134.504 99.0233 134.646 98.8802C134.779 98.7446 134.884 98.5845 134.955 98.4088C135.022 98.2565 135.057 98.0919 135.057 97.9255H136.496C136.459 98.2439 136.383 98.5565 136.27 98.8563C136.144 99.1897 135.959 99.4971 135.723 99.7632C135.464 100.049 135.153 100.282 134.807 100.449C134.4 100.643 133.954 100.737 133.504 100.724C133.018 100.741 132.534 100.647 132.089 100.449C131.737 100.286 131.421 100.053 131.161 99.7632C130.934 99.4972 130.76 99.1891 130.65 98.8563C130.548 98.5566 130.493 98.2424 130.489 97.9255L131.994 97.9136ZM135.283 113.725V106.285H135.241L131.917 113.731H130.186V102.395H131.94V109.799H131.988L135.3 102.395H137.084V113.731L135.283 113.725ZM157.399 112.765C157.678 112.588 157.943 112.388 158.19 112.168C158.391 111.971 158.558 111.741 158.683 111.488C158.814 111.194 158.898 110.882 158.933 110.563C158.983 110.105 159.005 109.645 158.998 109.185V102.412H164.975V113.749H163.191V104.017H160.634V109.244C160.641 109.861 160.599 110.478 160.509 111.088C160.44 111.554 160.302 112.006 160.098 112.43C159.914 112.802 159.657 113.132 159.343 113.403C158.992 113.694 158.604 113.937 158.19 114.125L157.387 112.771L157.399 112.765ZM178.611 112.765C178.349 113.142 177.992 113.443 177.576 113.636C177.16 113.81 176.713 113.897 176.262 113.892C175.847 113.907 175.436 113.808 175.072 113.606C174.76 113.42 174.499 113.16 174.311 112.848C174.115 112.522 173.974 112.165 173.895 111.792C173.811 111.4 173.77 111 173.77 110.599C173.771 110.166 173.817 109.734 173.907 109.31C173.997 108.896 174.16 108.502 174.389 108.146C174.624 107.787 174.945 107.492 175.322 107.287C175.796 107.045 176.325 106.93 176.856 106.953H178.641V105.444C178.662 105.068 178.553 104.697 178.331 104.393C178.176 104.241 177.988 104.126 177.782 104.058C177.576 103.99 177.357 103.97 177.142 104C176.825 104.005 176.516 104.1 176.25 104.274C176.1 104.375 175.973 104.507 175.878 104.661C175.784 104.816 175.724 104.989 175.703 105.169L173.99 104.692C174.121 103.98 174.511 103.342 175.084 102.902C175.708 102.453 176.464 102.226 177.231 102.257C178.082 102.199 178.926 102.449 179.61 102.961C180.163 103.427 180.442 104.238 180.442 105.402V113.755H178.658V112.771L178.611 112.765ZM178.611 108.528H177.291C176.838 108.521 176.397 108.671 176.042 108.952C175.843 109.148 175.692 109.387 175.599 109.651C175.506 109.914 175.475 110.196 175.507 110.473C175.477 110.911 175.598 111.345 175.851 111.703C175.985 111.851 176.152 111.967 176.337 112.04C176.523 112.114 176.723 112.143 176.922 112.126C177.155 112.144 177.39 112.11 177.609 112.027C177.828 111.943 178.026 111.812 178.189 111.643C178.49 111.268 178.641 110.793 178.611 110.312V108.522V108.528ZM197.313 113.749V106.124H197.266L196.172 108.51L194.845 111.1H194.025L192.699 108.558L191.646 106.356H191.604V113.755H189.755V102.418H191.539L193.21 105.879L194.441 108.331H194.489L195.678 105.879L197.391 102.418H199.175V113.755L197.313 113.749ZM213.685 113.749V106.285H213.637L210.301 113.731H208.565V102.395H210.349V109.799H210.396L213.709 102.395H215.493V113.731L213.685 113.749ZM229.741 113.749V108.731H226.768V113.749H224.918V102.412H226.821V107.186H229.795V102.412H231.65V113.749H229.741ZM245.453 112.765C245.189 113.143 244.83 113.443 244.412 113.636C243.996 113.81 243.549 113.898 243.098 113.892C242.683 113.906 242.272 113.807 241.908 113.606C241.598 113.418 241.336 113.158 241.147 112.848C240.953 112.521 240.814 112.165 240.737 111.792C240.653 111.4 240.611 111 240.612 110.599C240.61 110.165 240.656 109.733 240.749 109.31C240.834 108.896 240.995 108.501 241.224 108.146C241.462 107.787 241.785 107.492 242.164 107.287C242.636 107.044 243.163 106.929 243.692 106.953H245.476V105.444C245.495 105.068 245.386 104.698 245.167 104.393C245.011 104.242 244.823 104.129 244.617 104.06C244.411 103.992 244.193 103.971 243.978 104C243.661 104.006 243.352 104.101 243.086 104.274C242.937 104.376 242.812 104.509 242.717 104.663C242.623 104.817 242.562 104.99 242.539 105.169L240.826 104.692C240.959 103.98 241.349 103.343 241.92 102.902C242.544 102.453 243.3 102.226 244.067 102.257C244.918 102.199 245.762 102.449 246.446 102.961C246.999 103.427 247.278 104.238 247.278 105.402V113.755H245.494V112.771L245.453 112.765ZM245.453 108.528H244.126C243.676 108.522 243.237 108.672 242.884 108.952C242.681 109.145 242.526 109.384 242.432 109.648C242.338 109.912 242.307 110.195 242.342 110.473C242.315 110.91 242.437 111.344 242.687 111.703C242.821 111.851 242.987 111.967 243.173 112.04C243.359 112.114 243.559 112.143 243.758 112.126C243.992 112.144 244.228 112.109 244.447 112.026C244.667 111.942 244.866 111.812 245.03 111.643C245.329 111.267 245.48 110.793 245.453 110.312V108.522V108.528ZM259.766 104.035V113.749H257.982V104.017H255.604V102.412H262.181V104.017L259.766 104.035Z" fill="white"/>
</svg>
