<svg width="173" height="73" viewBox="0 0 173 73" fill="none" xmlns="http://www.w3.org/2000/svg">
<path fill-rule="evenodd" clip-rule="evenodd" d="M169.664 5.70494C169.155 5.7086 168.656 5.56143 168.23 5.28208C167.805 5.00274 167.472 4.60379 167.275 4.13581C167.077 3.66784 167.023 3.1519 167.12 2.6534C167.217 2.15491 167.46 1.69629 167.819 1.3357C168.177 0.975105 168.635 0.728764 169.135 0.627901C169.634 0.527039 170.152 0.576196 170.623 0.769143C171.095 0.96209 171.498 1.29014 171.782 1.71171C172.066 2.13327 172.218 2.62938 172.219 3.13714C172.221 3.47316 172.157 3.80635 172.03 4.11754C171.902 4.42873 171.715 4.71178 171.477 4.95042C171.24 5.18906 170.958 5.37857 170.646 5.50806C170.335 5.63755 170.002 5.70446 169.664 5.70494ZM169.631 0.154937C169.028 0.134293 168.432 0.29376 167.92 0.612881C167.408 0.932002 167.004 1.39622 166.759 1.94599C166.514 2.49576 166.439 3.106 166.544 3.69844C166.649 4.29087 166.929 4.83847 167.349 5.271C167.769 5.70353 168.308 6.00125 168.899 6.12597C169.49 6.25069 170.104 6.19673 170.664 5.97101C171.223 5.74528 171.702 5.35809 172.04 4.85909C172.377 4.3601 172.557 3.77207 172.556 3.17044C172.566 2.77956 172.497 2.3907 172.355 2.02633C172.213 1.66196 171.999 1.32929 171.727 1.04754C171.455 0.765785 171.13 0.540532 170.77 0.384787C170.41 0.229042 170.023 0.14589 169.631 0.140137V0.154937Z" fill="#000003"/>
<path fill-rule="evenodd" clip-rule="evenodd" d="M169.917 3.0927C170.08 3.10446 170.242 3.06568 170.381 2.9817C170.445 2.93127 170.494 2.86523 170.525 2.79001C170.556 2.7148 170.566 2.63297 170.556 2.5525C170.568 2.46001 170.552 2.36586 170.509 2.28303C170.465 2.2002 170.398 2.13276 170.314 2.09C170.208 2.04437 170.092 2.02289 169.976 2.02711H168.959V3.0779L169.917 3.0927ZM168.529 1.6793H169.965C170.167 1.67142 170.368 1.70674 170.556 1.7829C170.697 1.84489 170.816 1.94957 170.896 2.08227C170.975 2.21497 171.01 2.36904 170.997 2.5229C171.003 2.68177 170.962 2.83888 170.879 2.9743C170.794 3.09707 170.679 3.19538 170.544 3.2592C170.654 3.29717 170.75 3.36514 170.823 3.4553C170.898 3.56372 170.938 3.69331 170.934 3.8253V4.23971C170.927 4.32834 170.927 4.41747 170.934 4.5061C170.942 4.54668 170.959 4.58491 170.984 4.6177C171.009 4.65048 171.042 4.6769 171.079 4.69481V4.76141H170.548C170.535 4.73043 170.525 4.69819 170.518 4.6652C170.502 4.58236 170.493 4.49811 170.492 4.4136L170.466 3.8993C170.472 3.81748 170.453 3.73589 170.413 3.66434C170.373 3.59279 170.313 3.53434 170.24 3.496C170.122 3.44926 169.995 3.42905 169.869 3.4368H168.926V4.76141H168.495L168.529 1.6793Z" fill="#000003"/>
<path fill-rule="evenodd" clip-rule="evenodd" d="M0.443359 55.3181V0.97992H26.691V6.68532H7.38581V24.8708H24.1219V30.5799H7.40066V55.3255L0.443359 55.3181ZM51.5279 55.3181H58.4184L45.1869 0.97992H38.6677L25.6329 55.3181H32.3155L35.0479 43.2191H48.6989L51.5168 55.3181H51.5279ZM41.6637 12.1465H42.0164L44.4815 24.6377L47.4775 37.5174H36.2025L39.1132 24.7931L41.6674 12.1465H41.6637ZM86.1733 55.3181L77.4822 31.5086H70.9073V55.3181H63.95V0.97992H77.382C82.3568 0.97992 86.0161 2.25519 88.36 4.80572C90.7038 7.35625 91.8733 11.2339 91.8683 16.4385C91.9246 19.2763 91.3846 22.0943 90.2831 24.7117C89.2436 27.1056 87.1274 28.9556 83.9718 30.2617L93.2791 55.3218L86.1733 55.3181ZM84.911 16.4422C84.9242 15.1032 84.8061 13.7661 84.5583 12.4499C84.3566 11.3281 83.8895 10.2703 83.1958 9.36412C82.4861 8.48172 81.5605 7.7962 80.508 7.37352C79.1283 6.86202 77.6615 6.62446 76.1903 6.67422H70.9073V25.7995H76.8066C78.1594 25.8408 79.507 25.6144 80.7716 25.1335C81.7688 24.7382 82.6372 24.0762 83.2812 23.2206C83.9199 22.3394 84.356 21.3288 84.5583 20.2606C84.8055 19.0005 84.9237 17.7187 84.911 16.4348V16.4422ZM113.976 55.8657C109.341 55.8657 105.876 54.72 103.581 52.4284C101.287 50.1369 100.142 46.9105 100.147 42.7492V15.8946C100.151 13.9911 100.35 12.093 100.741 10.2299C101.086 8.46612 101.79 6.7914 102.809 5.30892C103.896 3.80796 105.352 2.61139 107.038 1.83462C108.857 0.949087 111.176 0.507553 113.995 0.51002C118.755 0.51002 122.175 1.58919 124.257 3.74752C126.338 5.90585 127.439 8.83379 127.561 12.5313L120.603 14.0113C120.663 11.6187 120.178 9.71932 119.148 8.31332C118.118 6.90732 116.372 6.20432 113.91 6.20432C112.704 6.15055 111.509 6.44891 110.472 7.06272C109.621 7.60439 108.913 8.33999 108.404 9.20872C107.897 10.0898 107.553 11.055 107.39 12.0577C107.221 13.0355 107.133 14.0255 107.127 15.0177V42.4199C107.135 43.2711 107.223 44.1197 107.39 44.9544C107.558 45.8458 107.903 46.6948 108.404 47.4519C108.928 48.2324 109.621 48.886 110.431 49.3648C111.467 49.9316 112.64 50.2018 113.821 50.1455H113.91C116.137 50.1455 117.898 49.6251 119.193 48.5841C120.487 47.5432 121.133 46.1125 121.131 44.2921V31.3421H113.976V25.966H128.084V43.5299C128.12 45.3728 127.74 47.2002 126.97 48.8764C126.268 50.3687 125.246 51.6887 123.974 52.7429C122.65 53.8158 121.122 54.6123 119.482 55.085C117.695 55.6123 115.84 55.8753 113.976 55.8657V55.8657ZM164.538 40.7179C164.538 45.5625 163.466 49.297 161.323 51.9215C159.179 54.5461 155.524 55.8608 150.356 55.8657C145.307 55.8657 141.71 54.6423 139.567 52.1953C137.424 49.7484 136.352 46.522 136.352 42.5161V15.7392C136.348 13.8512 136.539 11.9677 136.924 10.1189C137.277 8.36255 137.996 6.69981 139.036 5.23862C140.14 3.74642 141.612 2.56368 143.309 1.80502C145.128 0.94662 147.507 0.51742 150.445 0.51742C153.496 0.51742 155.948 0.894821 157.799 1.64962C159.49 2.28685 160.968 3.38107 162.069 4.80942C163.092 6.22161 163.771 7.85205 164.051 9.57132C164.388 11.5576 164.551 13.5694 164.538 15.5838V40.7179V40.7179ZM157.577 14.6218C157.576 13.6545 157.502 12.6886 157.358 11.7321C157.222 10.7885 156.907 9.87935 156.429 9.05332C155.906 8.19969 155.161 7.50295 154.272 7.03682C153.302 6.48922 152.025 6.21542 150.441 6.21542C148.679 6.21542 147.327 6.59282 146.387 7.34762C145.474 8.05581 144.749 8.97539 144.275 10.0264C143.802 11.0701 143.518 12.1886 143.435 13.3305C143.35 14.5034 143.306 15.4654 143.306 16.2461V42.542C143.311 43.3762 143.4 44.2078 143.569 45.0247C143.749 45.921 144.109 46.7717 144.627 47.5259C145.185 48.3202 145.924 48.9709 146.784 49.424C147.917 49.9189 149.142 50.171 150.379 50.164C151.615 50.157 152.837 49.891 153.964 49.3833C154.85 48.9158 155.607 48.237 156.166 47.4075C156.712 46.5675 157.09 45.6303 157.28 44.6473C157.488 43.5932 157.591 42.5212 157.588 41.4468L157.577 14.6218Z" fill="#000003"/>
<path fill-rule="evenodd" clip-rule="evenodd" d="M0.443359 70.1293V63.14H1.55712V66.1814H2.04347C2.16775 66.1799 2.29179 66.17 2.41472 66.1518C2.54608 66.1322 2.67226 66.0869 2.78597 66.0186C2.91616 65.9369 3.02852 65.8299 3.11639 65.7041C3.22791 65.5376 3.30723 65.3519 3.35028 65.1565L3.92201 63.14H5.00607L4.44919 65.1713C4.37092 65.476 4.24568 65.7669 4.07793 66.0334C3.93267 66.244 3.71893 66.3982 3.47279 66.47C3.61528 66.4987 3.75022 66.5567 3.86908 66.6401C3.98794 66.7235 4.08814 66.8306 4.16332 66.9547C4.32874 67.2342 4.45372 67.5357 4.53458 67.8501L5.14715 70.1219H4.03339L3.54704 68.1905C3.50355 67.9951 3.43229 67.807 3.33543 67.6318C3.26234 67.4981 3.15947 67.3829 3.03471 67.2951C2.92123 67.2216 2.79551 67.169 2.66346 67.1397C2.52067 67.1095 2.37505 67.0946 2.22909 67.0953H1.56826V70.1219L0.443359 70.1293ZM10.534 70.1293V63.0993H12.4163C13.0258 63.0485 13.632 63.2296 14.1129 63.6062C14.3773 63.9044 14.5522 64.2706 14.6179 64.6631C14.6835 65.0556 14.6372 65.4586 14.4842 65.8262C14.3606 66.0529 14.1819 66.245 13.9644 66.3849V66.3849C14.0995 66.4436 14.2216 66.5284 14.3236 66.6345C14.4255 66.7405 14.5054 66.8657 14.5584 67.0028C14.6719 67.3145 14.7272 67.6443 14.7218 67.9759C14.7479 68.2722 14.7089 68.5707 14.6076 68.8506C14.5063 69.1304 14.3451 69.3849 14.1352 69.5965C13.619 69.9769 12.982 70.1583 12.342 70.1071L10.534 70.1293ZM13.6563 67.9093C13.6727 67.641 13.5865 67.3766 13.415 67.1693C13.2806 67.0646 13.1268 66.9876 12.9624 66.9425C12.798 66.8974 12.6263 66.8852 12.4571 66.9066H11.6886V69.06H12.4868C12.6945 69.0684 12.902 69.0396 13.0994 68.9749C13.2419 68.9317 13.3701 68.8512 13.4707 68.7418C13.5599 68.6368 13.6167 68.5083 13.634 68.3718C13.6605 68.2165 13.6729 68.0593 13.6711 67.9019L13.6563 67.9093ZM13.5301 65.0122C13.5399 64.8859 13.5209 64.7591 13.4746 64.6413C13.4283 64.5234 13.3559 64.4174 13.2628 64.3314C12.9977 64.1531 12.6789 64.0721 12.3606 64.102H11.6886V65.952H12.3458C12.6691 65.9813 12.9924 65.8961 13.259 65.7115C13.3525 65.6192 13.4251 65.5081 13.4718 65.3855C13.5186 65.263 13.5384 65.1319 13.5301 65.0011V65.0122ZM23.2792 69.5151C23.1139 69.7487 22.8898 69.935 22.6295 70.0553C22.3698 70.1636 22.0905 70.2177 21.809 70.2144C21.55 70.223 21.2934 70.1616 21.0665 70.0368C20.8717 69.9215 20.7085 69.7601 20.5913 69.5669C20.4703 69.3637 20.3825 69.1426 20.3314 68.912C20.2793 68.6687 20.2532 68.4207 20.2535 68.172C20.2543 67.9033 20.2829 67.6355 20.3389 67.3728C20.3949 67.1162 20.4968 66.8719 20.6396 66.6513C20.7872 66.4275 20.9889 66.2443 21.2262 66.1185C21.5207 65.9679 21.8496 65.8965 22.1803 65.9113H23.294V64.99C23.3069 64.7578 23.2401 64.5281 23.1047 64.3388C23.0072 64.2451 22.8899 64.1746 22.7614 64.1323C22.6328 64.09 22.4964 64.0771 22.3622 64.0946C22.1643 64.0984 21.9714 64.1574 21.8053 64.2648C21.712 64.3277 21.6332 64.4097 21.5743 64.5055C21.5154 64.6012 21.4777 64.7083 21.4638 64.8198L20.3945 64.5238C20.4765 64.0822 20.7199 63.6867 21.0776 63.4138C21.4673 63.1356 21.939 62.995 22.4179 63.0142C22.9493 62.978 23.4762 63.1329 23.9029 63.4508C24.2482 63.7394 24.4226 64.2426 24.4226 64.9641V70.1441H23.3089V69.5336L23.2792 69.5151ZM23.2792 66.8881H22.455C22.1726 66.8837 21.8972 66.9765 21.6754 67.1508C21.5513 67.2723 21.4568 67.4205 21.3989 67.584C21.3409 67.7475 21.3212 67.922 21.3412 68.0943C21.3225 68.3655 21.3986 68.6348 21.5566 68.8565C21.6401 68.9486 21.7439 69.0202 21.8598 69.0657C21.9758 69.1113 22.1007 69.1296 22.2248 69.1192C22.3707 69.1304 22.5172 69.1094 22.6539 69.0576C22.7906 69.0058 22.9141 68.9245 23.0156 68.8195C23.2039 68.5869 23.2979 68.2926 23.2792 67.9944V66.8844V66.8881ZM32.5086 63.0068C32.6608 63.0106 32.8124 63.0279 32.9615 63.0586C33.1496 63.0937 33.3273 63.1708 33.4812 63.2843C33.6657 63.4237 33.8187 63.6002 33.9305 63.8023C34.08 64.09 34.1708 64.4044 34.1978 64.7273C34.2275 65.0122 34.246 65.3119 34.2497 65.6227C34.2534 65.9335 34.2497 66.2295 34.2497 66.5033C34.2497 67.0139 34.2497 67.4949 34.2126 67.9463C34.1987 68.3456 34.1261 68.7408 33.9973 69.1192C33.8968 69.4285 33.7085 69.7022 33.4553 69.9073C33.1524 70.1172 32.7878 70.2201 32.4195 70.1996C32.1732 70.2051 31.9291 70.1532 31.7066 70.0479C31.5073 69.9486 31.3371 69.7994 31.2129 69.615H31.1832V72.8562H30.0694V63.0956H31.1832V63.6358H31.2129C31.3416 63.4484 31.5055 63.2875 31.6955 63.1622C31.9434 63.0333 32.2223 62.9756 32.5011 62.9957L32.5086 63.0068ZM32.1373 64.1168C32.0019 64.1081 31.8663 64.1322 31.7422 64.1869C31.6181 64.2417 31.5091 64.3255 31.4245 64.4313C31.257 64.662 31.172 64.9421 31.1832 65.2268V68.0092C31.1691 68.2936 31.2501 68.5747 31.4134 68.8084C31.5018 68.9114 31.6136 68.992 31.7395 69.0434C31.8654 69.0949 32.0017 69.1158 32.1373 69.1044C32.315 69.1125 32.4914 69.0701 32.6459 68.9823C32.7899 68.8808 32.8947 68.7332 32.9429 68.5642C33.027 68.309 33.0782 68.0441 33.0951 67.7761C33.1211 67.4505 33.136 67.0361 33.136 66.5625C33.136 66.0889 33.136 65.7522 33.136 65.4525C33.1281 65.2015 33.0869 64.9527 33.0135 64.7125C32.9649 64.5386 32.859 64.3861 32.7127 64.2796C32.5453 64.1787 32.3511 64.131 32.1559 64.1427L32.1373 64.1168ZM44.1696 63.1215V69.06H44.656V71.8905H43.6128V70.1256H40.0339V63.0956H41.1885V69.06H43.0447V63.1104L44.1696 63.1215ZM52.0142 69.2043C52.1335 69.2117 52.2528 69.1904 52.3621 69.1421C52.4713 69.0938 52.5672 69.0199 52.6417 68.9268C52.7928 68.6967 52.8752 68.4285 52.8793 68.1535L54.019 68.3644C54.0172 68.8835 53.8167 69.3824 53.4584 69.7593C53.0307 70.1116 52.4821 70.2842 51.9288 70.2403C51.6641 70.2456 51.4004 70.2055 51.1492 70.1219C50.9465 70.0504 50.758 69.9439 50.5923 69.8074C50.4416 69.6884 50.3155 69.5413 50.2211 69.3745C50.1362 69.2231 50.0713 69.0614 50.028 68.8935C49.9964 68.7518 49.9729 68.6085 49.9575 68.4643C49.9389 68.2941 49.9241 68.0943 49.9167 67.9056C49.9092 67.7169 49.9166 67.4949 49.8944 67.2877C49.8721 67.0805 49.8944 66.8844 49.8944 66.7031C49.8944 66.5218 49.8944 66.2258 49.8944 65.9853C49.8944 65.7448 49.8944 65.5154 49.9278 65.2971C49.9612 65.0788 49.9723 64.879 50.002 64.694C50.023 64.5364 50.0603 64.3814 50.1134 64.2315C50.2358 63.8762 50.4669 63.5682 50.7742 63.3509C51.1492 63.1132 51.5891 62.9981 52.0328 63.0216C52.3144 62.997 52.598 63.037 52.8618 63.1383C53.1255 63.2396 53.3626 63.3996 53.5549 63.6062C53.8897 64.0727 54.0547 64.6392 54.0227 65.212V66.9436H50.997C50.997 67.2581 50.997 67.5652 51.0193 67.8686C51.0237 68.1032 51.0548 68.3365 51.1121 68.5642C51.1607 68.7586 51.2768 68.9297 51.4399 69.0469C51.6031 69.164 51.8026 69.2198 52.0031 69.2043H52.0142ZM52.9052 66.0371V65.4377C52.9056 65.2644 52.8944 65.0914 52.8718 64.9197C52.8514 64.7686 52.8049 64.6221 52.7345 64.4868C52.6706 64.3655 52.5742 64.2643 52.456 64.1945C52.3122 64.1184 52.1509 64.0814 51.9882 64.0872C51.8218 64.0853 51.6579 64.1275 51.513 64.2093C51.3491 64.3138 51.227 64.4722 51.1678 64.657C51.1115 64.8321 51.0778 65.0136 51.0675 65.1972C51.049 65.4229 51.0341 65.7041 51.023 66.0371H52.9052ZM59.7883 70.1404V63.1104H61.6705C62.2801 63.0589 62.8865 63.2401 63.3672 63.6173C63.5537 63.8005 63.6987 64.0215 63.7922 64.2653C63.8857 64.5091 63.9256 64.7701 63.9092 65.0307C63.9205 65.3123 63.8645 65.5925 63.7459 65.8484C63.6235 66.0759 63.4445 66.2683 63.2261 66.4071V66.4071C63.3605 66.4662 63.4819 66.5512 63.5832 66.6572C63.6845 66.7633 63.7638 66.8882 63.8164 67.025C63.9317 67.3362 63.9871 67.6663 63.9797 67.9981C64.0066 68.2942 63.9683 68.5925 63.8677 68.8724C63.767 69.1523 63.6063 69.407 63.3969 69.6187C62.8792 69.999 62.2411 70.1804 61.6 70.1293L59.7883 70.1404ZM62.9105 67.9204C62.9285 67.652 62.842 67.387 62.6692 67.1804C62.5356 67.0757 62.3825 66.9985 62.2186 66.9534C62.0548 66.9083 61.8837 66.8962 61.7151 66.9177H60.9429V69.06H61.7596C61.9685 69.0687 62.1773 69.0399 62.3759 68.9749C62.5184 68.9317 62.6466 68.8512 62.7472 68.7418C62.835 68.6359 62.8916 68.5078 62.9105 68.3718C62.9338 68.2162 62.945 68.0591 62.9439 67.9019L62.9105 67.9204ZM62.7843 65.0233C62.7938 64.8974 62.775 64.771 62.7294 64.6533C62.6839 64.5355 62.6126 64.4294 62.5207 64.3425C62.2541 64.1648 61.9343 64.0838 61.6149 64.1131H60.9429V65.9631H61.6C61.9187 65.9919 62.2376 65.9095 62.5022 65.73C62.5964 65.6383 62.6695 65.5273 62.7163 65.4046C62.7631 65.2819 62.7825 65.1505 62.7732 65.0196L62.7843 65.0233ZM70.9259 69.06H71.5385C71.7574 69.0687 71.9758 69.0335 72.1807 68.9564C72.3238 68.8961 72.4508 68.8036 72.552 68.6863C72.6363 68.5774 72.6947 68.4509 72.7228 68.3163C72.7509 68.1849 72.7646 68.0509 72.7636 67.9167C72.7649 67.7762 72.7512 67.6361 72.7228 67.4986C72.6981 67.3614 72.6365 67.2335 72.5446 67.1286C72.4417 67.0202 72.3145 66.9377 72.1733 66.8881C71.964 66.819 71.744 66.7877 71.5236 66.7956H70.9408V69.06H70.9259ZM74.4899 70.1256V63.0956H75.6594V70.1256H74.4899ZM69.7565 70.1256V63.0956H70.9259V65.767H71.5385C71.9457 65.7532 72.352 65.8134 72.7376 65.9446C73.0091 66.0411 73.2535 66.2009 73.4504 66.4108C73.6189 66.6043 73.7385 66.8352 73.7994 67.0842C73.861 67.3486 73.8922 67.6192 73.8922 67.8908C73.8958 68.2007 73.8622 68.51 73.792 68.8121C73.7358 69.08 73.6082 69.3279 73.4226 69.5297C73.2371 69.7315 73.0005 69.8798 72.7376 69.9591C72.3774 70.071 72.0011 70.1235 71.6239 70.1145L69.7565 70.1256ZM82.7503 60.3206C82.7606 60.4247 82.7895 60.5262 82.8357 60.6203C82.8846 60.727 82.9498 60.8256 83.0288 60.9126C83.1103 61.0033 83.2086 61.0774 83.3184 61.1309C83.4338 61.1875 83.5609 61.2166 83.6896 61.216C83.8305 61.2198 83.9704 61.1906 84.098 61.1309C84.2129 61.0802 84.3174 61.0087 84.4061 60.92C84.4888 60.8359 84.5544 60.7366 84.5992 60.6277C84.641 60.5332 84.6625 60.4311 84.6623 60.328H85.5607C85.5376 60.5254 85.4903 60.7193 85.4197 60.9052C85.3414 61.1119 85.2256 61.3025 85.0781 61.4676C84.9166 61.6446 84.7225 61.789 84.5064 61.8931C84.2527 62.0131 83.974 62.0714 83.6933 62.0633C83.3897 62.0736 83.0876 62.0154 82.8097 61.8931C82.5897 61.7919 82.3926 61.6472 82.2306 61.4676C82.0885 61.3026 81.98 61.1115 81.9113 60.9052C81.8473 60.7193 81.8135 60.5244 81.8111 60.328L82.7503 60.3206ZM84.8034 70.1256V65.5117H84.7774L82.7021 70.1293H81.6217V63.0993H82.7169V67.691H82.7466L84.8145 63.0993H85.9283V70.1293L84.8034 70.1256ZM98.6103 69.5299C98.7848 69.4202 98.9499 69.2965 99.1041 69.1599C99.2301 69.0377 99.3343 68.8951 99.4122 68.7381C99.4937 68.5561 99.5463 68.3626 99.5681 68.1646C99.5994 67.8808 99.613 67.5953 99.609 67.3099V63.1104H103.34V70.1404H102.226V64.1057H100.63V67.3469C100.634 67.7294 100.608 68.1117 100.552 68.4902C100.509 68.7789 100.423 69.0596 100.296 69.3227C100.18 69.5529 100.02 69.7579 99.8243 69.9258C99.6053 70.1063 99.3631 70.2569 99.1041 70.3735L98.6029 69.5336L98.6103 69.5299ZM111.853 69.5299C111.69 69.7641 111.467 69.9506 111.207 70.0701C110.947 70.1781 110.668 70.2322 110.386 70.2292C110.127 70.2382 109.871 70.1768 109.644 70.0516C109.449 69.9363 109.286 69.7749 109.169 69.5817C109.046 69.3793 108.958 69.1579 108.909 68.9268C108.857 68.6835 108.831 68.4355 108.831 68.1868C108.832 67.9181 108.86 67.6503 108.916 67.3876C108.972 67.131 109.074 66.8867 109.217 66.6661C109.364 66.4433 109.564 66.2602 109.8 66.1333C110.096 65.9831 110.426 65.9117 110.758 65.9261H111.871V64.99C111.885 64.7571 111.817 64.5268 111.678 64.3388C111.582 64.2442 111.464 64.1731 111.336 64.1308C111.207 64.0884 111.07 64.076 110.936 64.0946C110.738 64.0978 110.545 64.1568 110.379 64.2648C110.285 64.3271 110.206 64.4091 110.147 64.5049C110.088 64.6007 110.051 64.7081 110.037 64.8198L108.968 64.5238C109.05 64.0822 109.294 63.6867 109.651 63.4138C110.041 63.1356 110.513 62.995 110.992 63.0142C111.523 62.978 112.05 63.1329 112.477 63.4508C112.822 63.7394 112.996 64.2426 112.996 64.9641V70.1441H111.883V69.5336L111.853 69.5299ZM111.853 66.9029H111.029C110.746 66.8985 110.471 66.9913 110.249 67.1656C110.125 67.2871 110.03 67.4353 109.973 67.5988C109.915 67.7623 109.895 67.9368 109.915 68.1091C109.896 68.3803 109.972 68.6496 110.13 68.8713C110.214 68.9634 110.318 69.035 110.434 69.0805C110.549 69.1261 110.674 69.1444 110.799 69.134C110.944 69.1452 111.091 69.1242 111.228 69.0724C111.364 69.0206 111.488 68.9393 111.589 68.8343C111.778 68.6017 111.872 68.3074 111.853 68.0092V66.8992V66.9029ZM123.529 70.1404V65.4118H123.499L122.816 66.8918L121.988 68.4976H121.476L120.648 66.9214L119.991 65.5561H119.965V70.1441H118.81V63.1141H119.924L120.967 65.2601L121.736 66.7808H121.765L122.508 65.2601L123.577 63.1141H124.691V70.1441L123.529 70.1404ZM133.749 70.1404V65.5117H133.72L131.637 70.1293H130.553V63.0993H131.667V67.691H131.696L133.764 63.0993H134.878V70.1293L133.749 70.1404ZM143.773 70.1404V67.0287H141.917V70.1404H140.762V63.1104H141.95V66.0704H143.807V63.1104H144.965V70.1404H143.773ZM153.582 69.5299C153.417 69.7643 153.193 69.9507 152.932 70.0701C152.672 70.1784 152.393 70.2325 152.112 70.2292C151.853 70.2378 151.596 70.1764 151.369 70.0516C151.175 69.9353 151.012 69.7741 150.894 69.5817C150.773 69.3791 150.686 69.1577 150.638 68.9268C150.586 68.6835 150.56 68.4355 150.56 68.1868C150.559 67.918 150.588 67.65 150.645 67.3876C150.698 67.1307 150.799 66.8861 150.942 66.6661C151.091 66.4431 151.292 66.2601 151.529 66.1333C151.823 65.9827 152.152 65.9113 152.483 65.9261H153.597V64.99C153.608 64.7573 153.54 64.5277 153.404 64.3388C153.306 64.2451 153.189 64.1746 153.06 64.1323C152.932 64.09 152.795 64.0771 152.661 64.0946C152.463 64.0984 152.27 64.1574 152.104 64.2648C152.011 64.3282 151.933 64.4104 151.874 64.506C151.815 64.6016 151.777 64.7085 151.763 64.8198L150.694 64.5238C150.777 64.0827 151.02 63.6876 151.377 63.4138C151.766 63.1356 152.238 62.995 152.717 63.0142C153.248 62.978 153.775 63.1329 154.202 63.4508C154.547 63.7394 154.722 64.2426 154.722 64.9641V70.1441H153.608V69.5336L153.582 69.5299ZM153.582 66.9029H152.754C152.473 66.8991 152.199 66.9918 151.978 67.1656C151.851 67.2854 151.755 67.4333 151.696 67.5972C151.638 67.7611 151.618 67.9364 151.64 68.1091C151.623 68.3801 151.699 68.6488 151.856 68.8713C151.939 68.9634 152.043 69.035 152.159 69.0805C152.275 69.1261 152.4 69.1444 152.524 69.134C152.67 69.1448 152.817 69.1235 152.954 69.0718C153.092 69.02 153.216 68.9389 153.318 68.8343C153.505 68.6009 153.599 68.3071 153.582 68.0092V66.8992V66.9029ZM162.518 64.1168V70.1404H161.404V64.1057H159.919V63.1104H164.025V64.1057L162.518 64.1168Z" fill="#000003"/>
</svg>
