<svg width="80" height="80" viewBox="0 0 80 80" fill="none" xmlns="http://www.w3.org/2000/svg">
<g clip-path="url(#clip0_201_3498)">
<path d="M40 80C62.0914 80 80 62.0914 80 40C80 17.9086 62.0914 0 40 0C17.9086 0 0 17.9086 0 40C0 62.0914 17.9086 80 40 80Z" fill="#EB920E"/>
<path d="M45.7799 52.2999C45.7799 60.3999 39.4299 66.9699 31.5999 66.9699C23.7699 66.9699 17.4199 60.3999 17.4199 52.2999C17.4199 44.1999 31.5999 24.1899 31.5999 24.1899C31.5999 24.1899 45.7799 44.1999 45.7799 52.2999Z" stroke="white" stroke-width="2" stroke-miterlimit="10"/>
<path d="M62.5803 27.7C62.5803 31.93 59.2703 35.35 55.1803 35.35C51.0903 35.35 47.7803 31.92 47.7803 27.7C47.7803 23.48 55.1803 13.03 55.1803 13.03C55.1803 13.03 62.5803 23.47 62.5803 27.7Z" stroke="white" stroke-width="2" stroke-miterlimit="10"/>
</g>
<defs>
<clipPath id="clip0_201_3498">
<rect width="80" height="80" fill="white"/>
</clipPath>
</defs>
</svg>
